<?xml version="1.0" encoding="utf-8"?>
<!-- Generator: Adobe Illustrator 24.1.1, SVG Export Plug-In . SVG Version: 6.00 Build 0)  -->
<svg version="1.1" id="Logo" xmlns="http://www.w3.org/2000/svg" xmlns:xlink="http://www.w3.org/1999/xlink" x="0px" y="0px"
	 viewBox="0 0 456.7 234.5" style="enable-background:new 0 0 456.7 234.5;" xml:space="preserve">
<style type="text/css">
	.st0{fill:#221F1F;stroke:#F05423;stroke-width:12;stroke-miterlimit:10;}
	.st1{enable-background:new    ;}
	.st2{fill:#F05423;}
	.st3{fill:none;stroke:#F05423;stroke-width:5;stroke-miterlimit:10;}
</style>
<path id="Box" class="st0" d="M413.5,228.3H43.2C22.6,228.3,6,211.7,6,191.1v-148C6,22.6,22.6,6,43.2,6h370.3
	c20.5,0,37.2,16.6,37.2,37.2v148C450.7,211.7,434,228.3,413.5,228.3z"/>
<g>
	<g class="st1">
		<path class="st2" d="M37.6,201.3v-71.6h7.8v35.5l29.2-35.5H85l-24.6,29l25.7,42.5H75.8L55,165.1l-9.7,11.4v24.8H37.6z"/>
		<path class="st2" d="M112.7,201.3v-71.6h42.4v8.4h-34.7v21.9h32.5v8.4h-32.5v24.4h36v8.4H112.7z"/>
		<path class="st2" d="M188.7,201.3v-71.6h7.8v71.6H188.7z"/>
		<path class="st2" d="M245.1,201.3v-63.1h-19.3v-8.4h46.5v8.4h-19.4v63.1H245.1z"/>
		<path class="st2" d="M300.1,201.3v-71.6h7.8v29.4h30.5v-29.4h7.8v71.6h-7.8v-33.7h-30.5v33.7H300.1z"/>
		<path class="st2" d="M376.7,178.3l7.3-0.8c0.4,3.9,1.3,7,2.7,9.2c1.4,2.2,3.4,4,5.9,5.3c2.6,1.3,5.5,2,8.7,2
			c4.6,0,8.2-1.1,10.8-3.4c2.6-2.3,3.8-5.2,3.8-8.8c0-2.1-0.5-4-1.4-5.5s-2.3-2.9-4.2-3.9c-1.9-1-5.9-2.4-12.1-4.3
			c-5.5-1.6-9.5-3.3-11.8-5s-4.2-3.8-5.5-6.3c-1.3-2.6-2-5.4-2-8.7c0-5.8,1.9-10.5,5.6-14.2c3.7-3.7,8.8-5.5,15.1-5.5
			c4.4,0,8.2,0.9,11.5,2.6c3.3,1.7,5.8,4.2,7.6,7.4s2.8,7,2.9,11.4l-7.5,0.7c-0.4-4.7-1.8-8.1-4.2-10.4s-5.8-3.4-10.1-3.4
			c-4.4,0-7.7,1-10.1,3c-2.3,2-3.5,4.5-3.5,7.6c0,2.9,0.8,5.1,2.5,6.7c1.7,1.6,5.5,3.2,11.4,4.8c5.8,1.6,9.9,3,12.2,4.2
			c3.6,1.8,6.3,4.2,8.1,7.2c1.8,3,2.7,6.5,2.7,10.7c0,4.1-1,7.8-2.9,11.2c-1.9,3.4-4.5,5.9-7.8,7.7c-3.3,1.8-7.3,2.6-11.9,2.6
			c-7.3,0-13-2.2-17.4-6.5C379.1,191.7,376.8,185.7,376.7,178.3z"/>
	</g>
	<g class="st1">
		<path class="st3" d="M37.6,201.3v-71.6h7.8v35.5l29.2-35.5H85l-24.6,29l25.7,42.5H75.8L55,165.1l-9.7,11.4v24.8H37.6z"/>
		<path class="st3" d="M112.7,201.3v-71.6h42.4v8.4h-34.7v21.9h32.5v8.4h-32.5v24.4h36v8.4H112.7z"/>
		<path class="st3" d="M188.7,201.3v-71.6h7.8v71.6H188.7z"/>
		<path class="st3" d="M245.1,201.3v-63.1h-19.3v-8.4h46.5v8.4h-19.4v63.1H245.1z"/>
		<path class="st3" d="M300.1,201.3v-71.6h7.8v29.4h30.5v-29.4h7.8v71.6h-7.8v-33.7h-30.5v33.7H300.1z"/>
		<path class="st3" d="M376.7,178.3l7.3-0.8c0.4,3.9,1.3,7,2.7,9.2c1.4,2.2,3.4,4,5.9,5.3c2.6,1.3,5.5,2,8.7,2
			c4.6,0,8.2-1.1,10.8-3.4c2.6-2.3,3.8-5.2,3.8-8.8c0-2.1-0.5-4-1.4-5.5s-2.3-2.9-4.2-3.9c-1.9-1-5.9-2.4-12.1-4.3
			c-5.5-1.6-9.5-3.3-11.8-5s-4.2-3.8-5.5-6.3c-1.3-2.6-2-5.4-2-8.7c0-5.8,1.9-10.5,5.6-14.2c3.7-3.7,8.8-5.5,15.1-5.5
			c4.4,0,8.2,0.9,11.5,2.6c3.3,1.7,5.8,4.2,7.6,7.4s2.8,7,2.9,11.4l-7.5,0.7c-0.4-4.7-1.8-8.1-4.2-10.4s-5.8-3.4-10.1-3.4
			c-4.4,0-7.7,1-10.1,3c-2.3,2-3.5,4.5-3.5,7.6c0,2.9,0.8,5.1,2.5,6.7c1.7,1.6,5.5,3.2,11.4,4.8c5.8,1.6,9.9,3,12.2,4.2
			c3.6,1.8,6.3,4.2,8.1,7.2c1.8,3,2.7,6.5,2.7,10.7c0,4.1-1,7.8-2.9,11.2c-1.9,3.4-4.5,5.9-7.8,7.7c-3.3,1.8-7.3,2.6-11.9,2.6
			c-7.3,0-13-2.2-17.4-6.5C379.1,191.7,376.8,185.7,376.7,178.3z"/>
	</g>
</g>
<g>
	<g class="st1">
		<path class="st2" d="M31.4,105.6L54,34h8.3l24,71.6h-8.9l-6.8-21.7H46l-6.4,21.7H31.4z M48.3,76.2h20l-6.1-19.8
			c-1.9-6.1-3.3-11-4.1-14.8c-0.8,4.6-1.8,9.1-3.2,13.7L48.3,76.2z"/>
		<path class="st2" d="M112.1,105.6V34h7.8v63.1h28.9v8.4H112.1z"/>
		<path class="st2" d="M178.3,105.6V34h42.4v8.4h-34.7v21.9h32.5v8.4h-32.5v24.4h36v8.4H178.3z"/>
		<path class="st2" d="M246.9,105.6l22.7-37.3L249.6,34h9.2l10.7,18.3c2.2,3.8,3.8,6.7,4.7,8.8c1.3-2.6,2.8-5.3,4.7-8.2l11.9-19h8.4
			l-20.6,33.7l22.2,37.9h-9.6l-14.8-25.5c-0.8-1.4-1.7-3-2.5-4.8c-1.3,2.6-2.3,4.4-2.9,5.4l-14.7,25H246.9z"/>
		<path class="st2" d="M384.4,94V74.4h-16v-8.2h16V46.7h6.8v19.5h16v8.2h-16V94H384.4z"/>
	</g>
	<g class="st1">
		<path class="st3" d="M31.4,105.6L54,34h8.3l24,71.6h-8.9l-6.8-21.7H46l-6.4,21.7H31.4z M48.3,76.2h20l-6.1-19.8
			c-1.9-6.1-3.3-11-4.1-14.8c-0.8,4.6-1.8,9.1-3.2,13.7L48.3,76.2z"/>
		<path class="st3" d="M112.1,105.6V34h7.8v63.1h28.9v8.4H112.1z"/>
		<path class="st3" d="M178.3,105.6V34h42.4v8.4h-34.7v21.9h32.5v8.4h-32.5v24.4h36v8.4H178.3z"/>
		<path class="st3" d="M246.9,105.6l22.7-37.3L249.6,34h9.2l10.7,18.3c2.2,3.8,3.8,6.7,4.7,8.8c1.3-2.6,2.8-5.3,4.7-8.2l11.9-19h8.4
			l-20.6,33.7l22.2,37.9h-9.6l-14.8-25.5c-0.8-1.4-1.7-3-2.5-4.8c-1.3,2.6-2.3,4.4-2.9,5.4l-14.7,25H246.9z"/>
		<path class="st3" d="M384.4,94V74.4h-16v-8.2h16V46.7h6.8v19.5h16v8.2h-16V94H384.4z"/>
	</g>
</g>
</svg>
